<svg xmlns="http://www.w3.org/2000/svg" width="1140" height="480" viewBox="0 0 1140 480" role="img" aria-label="Optimal Binary Search Tree - Root Selection for Keys {k1, k2, k3}">
<rect width="1140" height="480" fill="#ffffff" rx="10"/>
<text text-anchor="middle" dominant-baseline="central" font-family='"Segoe Print", "Bradley Hand", Chilanka, "Comic Sans MS", "Comic Neue", cursive' font-size="21" font-weight="bold" fill="#1e1e1e"><tspan x="570.0" y="34.0">Optimal Binary Search Tree - Root Selection for Keys {k1, k2, k3}</tspan></text>
<path d="M569.9 113.5 Q570.0 128.1 570.6 142.5 M569.5 142.6 Q390.1 142.1 210.5 142.0 M210.6 142.5 Q210.1 154.3 210.0 170.0" fill="none" stroke="#1e1e1e" stroke-width="1.9" stroke-linecap="round" opacity="0.85"/>
<path d="M205.9 159.8 L210.0 170.0 L214.1 159.8" fill="none" stroke="#1e1e1e" stroke-width="1.9" stroke-linecap="round" stroke-linejoin="round"/>
<path d="M569.8 113.5 Q571.3 143.3 571.0 170.4" fill="none" stroke="#1e1e1e" stroke-width="1.9" stroke-linecap="round" opacity="0.85"/>
<path d="M565.9 159.8 L570.0 170.0 L574.1 159.8" fill="none" stroke="#1e1e1e" stroke-width="1.9" stroke-linecap="round" stroke-linejoin="round"/>
<path d="M569.4 113.7 Q569.7 128.3 570.1 141.7 M569.7 142.1 Q750.3 140.6 929.7 141.8 M930.1 141.7 Q928.6 156.5 929.8 170.1" fill="none" stroke="#1e1e1e" stroke-width="1.9" stroke-linecap="round" opacity="0.85"/>
<path d="M925.9 159.8 L930.0 170.0 L934.1 159.8" fill="none" stroke="#1e1e1e" stroke-width="1.9" stroke-linecap="round" stroke-linejoin="round"/>
<path d="M570.3 243.2 Q570.9 280.5 570.0 320.6" fill="none" stroke="#2f9e44" stroke-width="1.9" stroke-linecap="round" opacity="0.85"/>
<path d="M565.9 309.8 L570.0 320.0 L574.1 309.8" fill="none" stroke="#2f9e44" stroke-width="1.9" stroke-linecap="round" stroke-linejoin="round"/>
<rect x="483.0" y="270.0" width="174" height="24" rx="6" fill="#ffffff" opacity="0.95"/>
<text text-anchor="middle" dominant-baseline="central" font-family='"Segoe Print", "Bradley Hand", Chilanka, "Comic Sans MS", "Comic Neue", cursive' font-size="13" font-weight="normal" fill="#495057"><tspan x="570.0" y="282.0">lowest expected cost</tspan></text>
<rect x="440.0" y="60.0" width="260.0" height="54.0" rx="10" fill="#ffec99"/>
<path d="M438.9 60.2 Q569.4 60.2 699.5 58.5 M700.2 59.1 Q697.3 87.9 700.1 113.5 M701.2 112.5 Q569.5 115.4 439.0 114.1 M438.5 113.9 Q439.1 84.5 440.8 60.1" fill="none" stroke="#f08c00" stroke-width="2" stroke-linecap="round"/>
<path d="M438.9 61.3 Q571.1 60.2 701.0 60.9 M700.4 60.6 Q702.2 89.1 698.8 114.4 M698.9 113.0 Q569.4 114.1 439.8 115.4 M441.3 115.1 Q438.9 88.2 440.6 61.1" fill="none" stroke="#f08c00" stroke-width="1.3" stroke-linecap="round" opacity="0.55"/>
<text text-anchor="middle" dominant-baseline="central" font-family='"Segoe Print", "Bradley Hand", Chilanka, "Comic Sans MS", "Comic Neue", cursive' font-size="16" font-weight="bold" fill="#1e1e1e"><tspan x="570.0" y="76.4">Key Range E[1, 3]</tspan><tspan x="570.0" y="97.6">Keys: k1, k2, k3</tspan></text>
<rect x="60.0" y="170.0" width="300.0" height="74.0" rx="10" fill="#a5d8ff"/>
<path d="M60.1 169.7 Q207.4 169.8 360.8 171.1 M360.1 169.5 Q359.9 204.9 358.6 242.5 M359.9 244.5 Q208.4 242.5 58.4 243.8 M59.2 245.2 Q60.5 207.6 59.2 169.3" fill="none" stroke="#1971c2" stroke-width="2" stroke-linecap="round"/>
<path d="M61.4 169.7 Q212.3 172.0 360.1 171.2 M361.1 169.4 Q361.1 204.2 360.7 242.9 M361.3 245.2 Q211.6 241.4 61.1 244.5 M60.4 243.2 Q58.7 209.8 59.5 170.2" fill="none" stroke="#1971c2" stroke-width="1.3" stroke-linecap="round" opacity="0.55"/>
<text text-anchor="middle" dominant-baseline="central" font-family='"Segoe Print", "Bradley Hand", Chilanka, "Comic Sans MS", "Comic Neue", cursive' font-size="16" font-weight="normal" fill="#1e1e1e"><tspan x="210.0" y="185.9">Root = k1</tspan><tspan x="210.0" y="207.0">Left: empty | Right: {k2, k3}</tspan><tspan x="210.0" y="228.1">Expected Search Cost = 1.30</tspan></text>
<rect x="420.0" y="170.0" width="300.0" height="74.0" rx="10" fill="#b2f2bb"/>
<path d="M419.8 169.1 Q568.5 172.1 719.1 169.9 M719.3 170.3 Q718.7 204.8 720.3 245.5 M720.2 243.0 Q571.7 245.3 419.2 244.9 M418.9 245.3 Q421.1 207.2 421.0 170.9" fill="none" stroke="#2f9e44" stroke-width="2" stroke-linecap="round"/>
<path d="M420.5 170.9 Q570.7 168.5 718.6 170.5 M720.2 169.3 Q719.7 208.7 721.6 242.7 M719.4 242.9 Q567.2 242.3 419.6 243.9 M421.1 244.8 Q421.5 206.9 418.5 168.7" fill="none" stroke="#2f9e44" stroke-width="1.3" stroke-linecap="round" opacity="0.55"/>
<text text-anchor="middle" dominant-baseline="central" font-family='"Segoe Print", "Bradley Hand", Chilanka, "Comic Sans MS", "Comic Neue", cursive' font-size="16" font-weight="bold" fill="#1e1e1e"><tspan x="570.0" y="185.9">Root = k2</tspan><tspan x="570.0" y="207.0">Left: {k1} | Right: {k3}</tspan><tspan x="570.0" y="228.1">Expected Search Cost = 1.25</tspan></text>
<rect x="780.0" y="170.0" width="300.0" height="74.0" rx="10" fill="#a5d8ff"/>
<path d="M780.9 171.0 Q928.0 172.3 1080.7 168.5 M1080.9 170.6 Q1080.8 208.0 1080.1 243.5 M1080.4 245.2 Q928.1 242.2 781.2 244.4 M781.4 243.7 Q782.3 209.0 780.1 171.2" fill="none" stroke="#1971c2" stroke-width="2" stroke-linecap="round"/>
<path d="M779.9 168.5 Q932.0 171.5 1079.1 170.2 M1078.7 170.8 Q1077.7 204.5 1079.9 243.1 M1080.3 242.9 Q928.7 241.5 780.8 244.6 M779.8 242.4 Q782.1 206.2 778.9 169.6" fill="none" stroke="#1971c2" stroke-width="1.3" stroke-linecap="round" opacity="0.55"/>
<text text-anchor="middle" dominant-baseline="central" font-family='"Segoe Print", "Bradley Hand", Chilanka, "Comic Sans MS", "Comic Neue", cursive' font-size="16" font-weight="normal" fill="#1e1e1e"><tspan x="930.0" y="185.9">Root = k3</tspan><tspan x="930.0" y="207.0">Left: {k1, k2} | Right: empty</tspan><tspan x="930.0" y="228.1">Expected Search Cost = 1.45</tspan></text>
<rect x="200.0" y="320.0" width="740.0" height="70.0" rx="10" fill="#b2f2bb"/>
<path d="M200.4 318.9 Q572.5 319.4 939.0 319.8 M941.2 321.3 Q942.0 353.9 941.1 390.6 M938.9 390.6 Q572.3 392.2 198.4 390.0 M200.5 390.9 Q200.7 353.5 198.6 320.5" fill="none" stroke="#2f9e44" stroke-width="2" stroke-linecap="round"/>
<path d="M200.6 319.3 Q569.7 317.2 938.6 320.6 M939.6 321.2 Q937.7 357.4 939.6 389.2 M940.6 391.3 Q571.8 391.4 198.9 389.4 M199.7 389.2 Q202.7 352.9 198.6 320.2" fill="none" stroke="#2f9e44" stroke-width="1.3" stroke-linecap="round" opacity="0.55"/>
<text text-anchor="middle" dominant-baseline="central" font-family='"Segoe Print", "Bradley Hand", Chilanka, "Comic Sans MS", "Comic Neue", cursive' font-size="16" font-weight="bold" fill="#1e1e1e"><tspan x="570.0" y="344.4">Optimal Choice: Root k2 with Expected Cost 1.25</tspan><tspan x="570.0" y="365.6">Balances key access probabilities across left and right subtrees</tspan></text>
<text text-anchor="middle" dominant-baseline="central" font-family='"Segoe Print", "Bradley Hand", Chilanka, "Comic Sans MS", "Comic Neue", cursive' font-size="14" font-weight="normal" fill="#868e96"><tspan x="570.0" y="458.0">Cost formula: e[i, j] = w(i, j) + min_{r} (e[i, r-1] + e[r+1, j])</tspan></text>
</svg>