<svg xmlns="http://www.w3.org/2000/svg" width="1140" height="480" viewBox="0 0 1140 480" role="img" aria-label="Traveling Salesperson Problem (TSP) Held-Karp Subset State Expansion">
<rect width="1140" height="480" fill="#ffffff" rx="10"/>
<text text-anchor="middle" dominant-baseline="central" font-family='"Segoe Print", "Bradley Hand", Chilanka, "Comic Sans MS", "Comic Neue", cursive' font-size="21" font-weight="bold" fill="#1e1e1e"><tspan x="570.0" y="34.0">Traveling Salesperson Problem (TSP) Held-Karp Subset State Expansion</tspan></text>
<path d="M569.9 119.5 Q570.0 135.1 570.6 150.5 M569.5 150.6 Q397.6 150.1 225.5 150.0 M225.6 150.5 Q225.1 163.3 225.0 180.0" fill="none" stroke="#1e1e1e" stroke-width="1.9" stroke-linecap="round" opacity="0.85"/>
<path d="M220.9 169.8 L225.0 180.0 L229.1 169.8" fill="none" stroke="#1e1e1e" stroke-width="1.9" stroke-linecap="round" stroke-linejoin="round"/>
<path d="M569.8 119.5 Q571.3 151.3 571.0 180.4" fill="none" stroke="#1e1e1e" stroke-width="1.9" stroke-linecap="round" opacity="0.85"/>
<path d="M565.9 169.8 L570.0 180.0 L574.1 169.8" fill="none" stroke="#1e1e1e" stroke-width="1.9" stroke-linecap="round" stroke-linejoin="round"/>
<path d="M569.4 119.7 Q569.7 135.3 570.1 149.7 M569.7 150.1 Q742.8 148.6 914.7 149.8 M915.1 149.7 Q913.6 165.5 914.8 180.1" fill="none" stroke="#1e1e1e" stroke-width="1.9" stroke-linecap="round" opacity="0.85"/>
<path d="M910.9 169.8 L915.0 180.0 L919.1 169.8" fill="none" stroke="#1e1e1e" stroke-width="1.9" stroke-linecap="round" stroke-linejoin="round"/>
<path d="M570.3 259.2 Q570.9 293.5 570.0 330.6" fill="none" stroke="#2f9e44" stroke-width="1.9" stroke-linecap="round" opacity="0.85"/>
<path d="M565.9 319.8 L570.0 330.0 L574.1 319.8" fill="none" stroke="#2f9e44" stroke-width="1.9" stroke-linecap="round" stroke-linejoin="round"/>
<rect x="507.0" y="283.0" width="126" height="24" rx="6" fill="#ffffff" opacity="0.95"/>
<text text-anchor="middle" dominant-baseline="central" font-family='"Segoe Print", "Bradley Hand", Chilanka, "Comic Sans MS", "Comic Neue", cursive' font-size="13" font-weight="normal" fill="#495057"><tspan x="570.0" y="295.0">optimal choice</tspan></text>
<rect x="440.0" y="60.0" width="260.0" height="60.0" rx="10" fill="#ffec99"/>
<path d="M438.9 60.2 Q569.4 60.2 699.5 58.5 M700.2 59.1 Q697.3 90.9 700.1 119.5 M701.2 118.5 Q569.5 121.4 439.0 120.1 M438.5 119.9 Q439.1 87.5 440.8 60.1" fill="none" stroke="#f08c00" stroke-width="2" stroke-linecap="round"/>
<path d="M438.9 61.3 Q571.1 60.2 701.0 60.9 M700.4 60.6 Q702.2 92.1 698.8 120.4 M698.9 119.0 Q569.4 120.1 439.8 121.4 M441.3 121.1 Q438.9 91.2 440.6 61.1" fill="none" stroke="#f08c00" stroke-width="1.3" stroke-linecap="round" opacity="0.55"/>
<text text-anchor="middle" dominant-baseline="central" font-family='"Segoe Print", "Bradley Hand", Chilanka, "Comic Sans MS", "Comic Neue", cursive' font-size="16" font-weight="bold" fill="#1e1e1e"><tspan x="570.0" y="79.4">Start City 1</tspan><tspan x="570.0" y="100.6">Full Set S = {2, 3, 4}</tspan></text>
<rect x="80.0" y="180.0" width="290.0" height="80.0" rx="10" fill="#a5d8ff"/>
<path d="M80.1 179.7 Q222.4 179.8 370.8 181.1 M370.1 179.5 Q369.9 217.9 368.6 258.5 M369.9 260.5 Q223.4 258.5 78.4 259.8 M79.2 261.2 Q80.5 220.6 79.2 179.3" fill="none" stroke="#1971c2" stroke-width="2" stroke-linecap="round"/>
<path d="M81.4 179.7 Q227.3 182.0 370.1 181.2 M371.1 179.4 Q371.1 217.2 370.7 258.9 M371.3 261.2 Q226.6 257.4 81.1 260.5 M80.4 259.2 Q78.7 222.8 79.5 180.2" fill="none" stroke="#1971c2" stroke-width="1.3" stroke-linecap="round" opacity="0.55"/>
<text text-anchor="middle" dominant-baseline="central" font-family='"Segoe Print", "Bradley Hand", Chilanka, "Comic Sans MS", "Comic Neue", cursive' font-size="16" font-weight="normal" fill="#1e1e1e"><tspan x="225.0" y="198.9">Choose City 2</tspan><tspan x="225.0" y="220.0">Cost: c(1,2) + g(2, {3,4})</tspan><tspan x="225.0" y="241.1">2 + 20 = 22</tspan></text>
<rect x="425.0" y="180.0" width="290.0" height="80.0" rx="10" fill="#b2f2bb"/>
<path d="M424.8 179.1 Q568.5 182.1 714.1 179.9 M714.3 180.3 Q713.7 217.8 715.3 261.5 M715.2 259.0 Q571.7 261.3 424.2 260.9 M423.9 261.3 Q426.1 220.2 426.0 180.9" fill="none" stroke="#2f9e44" stroke-width="2" stroke-linecap="round"/>
<path d="M425.5 180.9 Q570.7 178.5 713.6 180.5 M715.2 179.3 Q714.7 221.7 716.6 258.7 M714.4 258.9 Q567.2 258.3 424.6 259.9 M426.1 260.8 Q426.5 219.9 423.5 178.7" fill="none" stroke="#2f9e44" stroke-width="1.3" stroke-linecap="round" opacity="0.55"/>
<text text-anchor="middle" dominant-baseline="central" font-family='"Segoe Print", "Bradley Hand", Chilanka, "Comic Sans MS", "Comic Neue", cursive' font-size="16" font-weight="bold" fill="#1e1e1e"><tspan x="570.0" y="198.9">Choose City 3</tspan><tspan x="570.0" y="220.0">Cost: c(1,3) + g(3, {2,4})</tspan><tspan x="570.0" y="241.1">9 + 12 = 21</tspan></text>
<rect x="770.0" y="180.0" width="290.0" height="80.0" rx="10" fill="#a5d8ff"/>
<path d="M770.9 181.0 Q913.0 182.3 1060.7 178.5 M1060.9 180.6 Q1060.8 221.0 1060.1 259.5 M1060.4 261.2 Q913.1 258.2 771.2 260.4 M771.4 259.7 Q772.3 222.0 770.1 181.2" fill="none" stroke="#1971c2" stroke-width="2" stroke-linecap="round"/>
<path d="M769.9 178.5 Q917.0 181.5 1059.1 180.2 M1058.7 180.8 Q1057.7 217.5 1059.9 259.1 M1060.3 258.9 Q913.7 257.5 770.8 260.6 M769.8 258.4 Q772.1 219.2 768.9 179.6" fill="none" stroke="#1971c2" stroke-width="1.3" stroke-linecap="round" opacity="0.55"/>
<text text-anchor="middle" dominant-baseline="central" font-family='"Segoe Print", "Bradley Hand", Chilanka, "Comic Sans MS", "Comic Neue", cursive' font-size="16" font-weight="normal" fill="#1e1e1e"><tspan x="915.0" y="198.9">Choose City 4</tspan><tspan x="915.0" y="220.0">Cost: c(1,4) + g(4, {2,3})</tspan><tspan x="915.0" y="241.1">10 + 20 = 30</tspan></text>
<rect x="200.0" y="330.0" width="740.0" height="80.0" rx="10" fill="#b2f2bb"/>
<path d="M200.4 328.9 Q572.5 329.4 939.0 329.8 M941.2 331.3 Q942.0 368.9 941.1 410.6 M938.9 410.6 Q572.3 412.2 198.4 410.0 M200.5 410.9 Q200.7 368.5 198.6 330.5" fill="none" stroke="#2f9e44" stroke-width="2" stroke-linecap="round"/>
<path d="M200.6 329.3 Q569.7 327.2 938.6 330.6 M939.6 331.2 Q937.7 372.4 939.6 409.2 M940.6 411.3 Q571.8 411.4 198.9 409.4 M199.7 409.2 Q202.7 367.9 198.6 330.2" fill="none" stroke="#2f9e44" stroke-width="1.3" stroke-linecap="round" opacity="0.55"/>
<text text-anchor="middle" dominant-baseline="central" font-family='"Segoe Print", "Bradley Hand", Chilanka, "Comic Sans MS", "Comic Neue", cursive' font-size="16" font-weight="bold" fill="#1e1e1e"><tspan x="570.0" y="348.9">Minimum Tour Cost = 21</tspan><tspan x="570.0" y="370.0">Optimal sequence: 1 -&gt; 3 -&gt; 2 -&gt; 4 -&gt; 1</tspan><tspan x="570.0" y="391.1">Saves exponential time: O(n^2 * 2^n) vs O(n!) brute-force</tspan></text>
<text text-anchor="middle" dominant-baseline="central" font-family='"Segoe Print", "Bradley Hand", Chilanka, "Comic Sans MS", "Comic Neue", cursive' font-size="14" font-weight="normal" fill="#868e96"><tspan x="570.0" y="458.0">Held-Karp reduces TSP from factorial complexity to exponential complexity using bitmask dynamic programming</tspan></text>
</svg>