<svg xmlns="http://www.w3.org/2000/svg" width="1160" height="720" viewBox="0 0 1160 720" role="img" aria-label="Complexity Class Hierarchy (Assuming P != NP)">
<rect width="1160" height="720" fill="#ffffff" rx="10"/>
<text text-anchor="middle" dominant-baseline="central" font-family='"Segoe Print", "Bradley Hand", Chilanka, "Comic Sans MS", "Comic Neue", cursive' font-size="21" font-weight="bold" fill="#1e1e1e"><tspan x="580.0" y="34.0">Complexity Class Hierarchy (Assuming P != NP)</tspan></text>
<rect x="50.0" y="70.0" width="1060.0" height="540.0" rx="10" fill="#f8f9fa" opacity="0.4"/>
<path d="M50.7 68.7 Q580.8 72.4 1109.3 71.3 M1108.8 68.6 Q1110.2 340.3 1108.6 609.2 M1109.7 611.4 Q581.5 612.8 48.8 611.0 M51.1 610.3 Q49.9 341.4 49.6 70.0" fill="none" stroke="#adb5bd" stroke-width="1.6" stroke-dasharray="6 4" stroke-linecap="round" opacity="0.8"/>
<rect x="64.0" y="59.0" width="456" height="22" rx="4" fill="#ffffff"/>
<text text-anchor="middle" dominant-baseline="central" font-family='"Segoe Print", "Bradley Hand", Chilanka, "Comic Sans MS", "Comic Neue", cursive' font-size="13" font-weight="bold" fill="#adb5bd"><tspan x="292.0" y="70.0">NP-Hard (at least as hard as the hardest problem in NP)</tspan></text>
<rect x="90.0" y="140.0" width="980.0" height="360.0" rx="10" fill="#f8f9fa" opacity="0.4"/>
<path d="M91.0 140.8 Q582.0 140.5 1071.6 140.9 M1070.0 140.0 Q1070.5 319.4 1070.8 499.1 M1071.0 500.1 Q578.7 500.5 90.8 499.2 M91.3 500.8 Q90.4 318.2 88.7 141.5" fill="none" stroke="#adb5bd" stroke-width="1.6" stroke-dasharray="6 4" stroke-linecap="round" opacity="0.8"/>
<rect x="104.0" y="129.0" width="568" height="22" rx="4" fill="#ffffff"/>
<text text-anchor="middle" dominant-baseline="central" font-family='"Segoe Print", "Bradley Hand", Chilanka, "Comic Sans MS", "Comic Neue", cursive' font-size="13" font-weight="bold" fill="#adb5bd"><tspan x="388.0" y="140.0">NP (solvable in nondeterministic poly-time / verifiable in poly-time)</tspan></text>
<path d="M339.9 229.5 Q340.0 257.6 340.6 285.5 M339.5 285.6 Q580.1 285.1 820.5 285.0 M820.6 285.5 Q820.1 310.8 820.0 340.0" fill="none" stroke="#1e1e1e" stroke-width="1.9" stroke-linecap="round" stroke-dasharray="9 7" opacity="0.85"/>
<path d="M815.9 329.8 L820.0 340.0 L824.1 329.8" fill="none" stroke="#1e1e1e" stroke-width="1.9" stroke-linecap="round" stroke-linejoin="round"/>
<rect x="497.0" y="273.0" width="166" height="24" rx="6" fill="#ffffff" opacity="0.95"/>
<text text-anchor="middle" dominant-baseline="central" font-family='"Segoe Print", "Bradley Hand", Chilanka, "Comic Sans MS", "Comic Neue", cursive' font-size="13" font-weight="normal" fill="#495057"><tspan x="580.0" y="285.0">poly-time reduction</tspan></text>
<path d="M819.8 339.5 Q821.3 431.3 821.0 520.4" fill="none" stroke="#1e1e1e" stroke-width="1.9" stroke-linecap="round" stroke-dasharray="9 7" opacity="0.85"/>
<path d="M815.9 509.8 L820.0 520.0 L824.1 509.8" fill="none" stroke="#1e1e1e" stroke-width="1.9" stroke-linecap="round" stroke-linejoin="round"/>
<rect x="769.0" y="418.0" width="102" height="24" rx="6" fill="#ffffff" opacity="0.95"/>
<text text-anchor="middle" dominant-baseline="central" font-family='"Segoe Print", "Bradley Hand", Chilanka, "Comic Sans MS", "Comic Neue", cursive' font-size="13" font-weight="normal" fill="#495057"><tspan x="820.0" y="430.0">subsumed by</tspan></text>
<rect x="130.0" y="230.0" width="420.0" height="110.0" rx="10" fill="#b2f2bb"/>
<path d="M128.9 230.2 Q339.4 230.2 549.5 228.5 M550.2 229.1 Q547.3 285.9 550.1 339.5 M551.2 338.5 Q339.5 341.4 129.0 340.1 M128.5 339.9 Q129.1 282.5 130.8 230.1" fill="none" stroke="#2f9e44" stroke-width="2" stroke-linecap="round"/>
<path d="M128.9 231.3 Q341.1 230.2 551.0 230.9 M550.4 230.6 Q552.2 287.1 548.8 340.4 M548.9 339.0 Q339.4 340.1 129.8 341.4 M131.3 341.1 Q128.9 286.2 130.6 231.1" fill="none" stroke="#2f9e44" stroke-width="1.3" stroke-linecap="round" opacity="0.55"/>
<text text-anchor="middle" dominant-baseline="central" font-family='"Segoe Print", "Bradley Hand", Chilanka, "Comic Sans MS", "Comic Neue", cursive' font-size="14" font-weight="bold" fill="#1e1e1e"><tspan x="340.0" y="266.5">Class P</tspan><tspan x="340.0" y="285.0">Solved deterministically in poly-time</tspan><tspan x="340.0" y="303.5">e.g., Sorting, Shortest Path, MST</tspan></text>
<rect x="610.0" y="230.0" width="420.0" height="110.0" rx="10" fill="#ffec99"/>
<path d="M610.1 229.7 Q817.4 229.8 1030.8 231.1 M1030.1 229.5 Q1029.9 282.9 1028.6 338.5 M1029.9 340.5 Q818.4 338.5 608.4 339.8 M609.2 341.2 Q610.5 285.6 609.2 229.3" fill="none" stroke="#f08c00" stroke-width="2" stroke-linecap="round"/>
<path d="M611.4 229.7 Q822.3 232.0 1030.1 231.2 M1031.1 229.4 Q1031.1 282.2 1030.7 338.9 M1031.3 341.2 Q821.6 337.4 611.1 340.5 M610.4 339.2 Q608.7 287.8 609.5 230.2" fill="none" stroke="#f08c00" stroke-width="1.3" stroke-linecap="round" opacity="0.55"/>
<text text-anchor="middle" dominant-baseline="central" font-family='"Segoe Print", "Bradley Hand", Chilanka, "Comic Sans MS", "Comic Neue", cursive' font-size="13" font-weight="bold" fill="#1e1e1e"><tspan x="820.0" y="259.3">Class NP-Complete</tspan><tspan x="820.0" y="276.4">Hardest problems in NP</tspan><tspan x="820.0" y="293.6">e.g., 3-SAT, Clique, Vertex Cover,</tspan><tspan x="820.0" y="310.7">TSP-Decision</tspan></text>
<rect x="140.0" y="380.0" width="400.0" height="80.0" rx="10" fill="#99e9f2"/>
<path d="M139.8 379.1 Q338.5 382.1 539.1 379.9 M539.3 380.3 Q538.7 417.8 540.3 461.5 M540.2 459.0 Q341.7 461.3 139.2 460.9 M138.9 461.3 Q141.1 420.2 141.0 380.9" fill="none" stroke="#0c8599" stroke-width="2" stroke-linecap="round"/>
<path d="M140.5 380.9 Q340.7 378.5 538.6 380.5 M540.2 379.3 Q539.7 421.7 541.6 458.7 M539.4 458.9 Q337.2 458.3 139.6 459.9 M141.1 460.8 Q141.5 419.9 138.5 378.7" fill="none" stroke="#0c8599" stroke-width="1.3" stroke-linecap="round" opacity="0.55"/>
<text text-anchor="middle" dominant-baseline="central" font-family='"Segoe Print", "Bradley Hand", Chilanka, "Comic Sans MS", "Comic Neue", cursive' font-size="13" font-weight="normal" fill="#1e1e1e"><tspan x="340.0" y="402.8">NP-Intermediate</tspan><tspan x="340.0" y="420.0">(if P != NP: problems in NP neither in P nor NPC</tspan><tspan x="340.0" y="437.2">e.g., Factoring, Graph Isomorphism)</tspan></text>
<rect x="130.0" y="520.0" width="900.0" height="74.0" rx="10" fill="#ffc9c9"/>
<path d="M130.9 521.0 Q578.0 522.3 1030.7 518.5 M1030.9 520.6 Q1030.8 558.0 1030.1 593.5 M1030.4 595.2 Q578.1 592.2 131.2 594.4 M131.4 593.7 Q132.3 559.0 130.1 521.2" fill="none" stroke="#e03131" stroke-width="2" stroke-linecap="round"/>
<path d="M129.9 518.5 Q582.0 521.5 1029.1 520.2 M1028.7 520.8 Q1027.7 554.5 1029.9 593.1 M1030.3 592.9 Q578.7 591.5 130.8 594.6 M129.8 592.4 Q132.1 556.2 128.9 519.6" fill="none" stroke="#e03131" stroke-width="1.3" stroke-linecap="round" opacity="0.55"/>
<text text-anchor="middle" dominant-baseline="central" font-family='"Segoe Print", "Bradley Hand", Chilanka, "Comic Sans MS", "Comic Neue", cursive' font-size="13" font-weight="normal" fill="#1e1e1e"><tspan x="580.0" y="539.8">NP-Hard (outside NP)</tspan><tspan x="580.0" y="557.0">Not necessarily decision problems or verifiable in poly-time</tspan><tspan x="580.0" y="574.2">e.g., Halting Problem, TSP Optimization</tspan></text>
<text text-anchor="middle" dominant-baseline="central" font-family='"Segoe Print", "Bradley Hand", Chilanka, "Comic Sans MS", "Comic Neue", cursive' font-size="14" font-weight="normal" fill="#868e96"><tspan x="580.0" y="698.0">NP-Complete problems lie at the exact intersection of NP and NP-Hard</tspan></text>
</svg>