<svg xmlns="http://www.w3.org/2000/svg" width="1140" height="620" viewBox="0 0 1140 620" role="img" aria-label="Bellman-Ford Algorithm Execution &amp; Cycle Detection Flow">
<rect width="1140" height="620" fill="#ffffff" rx="10"/>
<text text-anchor="middle" dominant-baseline="central" font-family='"Segoe Print", "Bradley Hand", Chilanka, "Comic Sans MS", "Comic Neue", cursive' font-size="21" font-weight="bold" fill="#1e1e1e"><tspan x="570.0" y="34.0">Bellman-Ford Algorithm Execution &amp; Cycle Detection Flow</tspan></text>
<path d="M569.9 111.5 Q570.0 126.1 570.6 140.5" fill="none" stroke="#1e1e1e" stroke-width="1.9" stroke-linecap="round" opacity="0.85"/>
<path d="M565.9 129.8 L570.0 140.0 L574.1 129.8" fill="none" stroke="#1e1e1e" stroke-width="1.9" stroke-linecap="round" stroke-linejoin="round"/>
<path d="M569.8 197.5 Q571.3 212.8 571.0 225.4" fill="none" stroke="#1e1e1e" stroke-width="1.9" stroke-linecap="round" opacity="0.85"/>
<path d="M565.9 214.8 L570.0 225.0 L574.1 214.8" fill="none" stroke="#1e1e1e" stroke-width="1.9" stroke-linecap="round" stroke-linejoin="round"/>
<path d="M569.4 284.7 Q569.7 300.3 570.1 314.7" fill="none" stroke="#1e1e1e" stroke-width="1.9" stroke-linecap="round" opacity="0.85"/>
<path d="M565.9 304.8 L570.0 315.0 L574.1 304.8" fill="none" stroke="#1e1e1e" stroke-width="1.9" stroke-linecap="round" stroke-linejoin="round"/>
<path d="M570.3 368.2 Q570.9 380.5 570.0 395.6" fill="none" stroke="#1e1e1e" stroke-width="1.9" stroke-linecap="round" opacity="0.85"/>
<path d="M565.9 384.8 L570.0 395.0 L574.1 384.8" fill="none" stroke="#1e1e1e" stroke-width="1.9" stroke-linecap="round" stroke-linejoin="round"/>
<path d="M570.8 446.6 Q570.3 461.0 569.7 475.2" fill="none" stroke="#1e1e1e" stroke-width="1.9" stroke-linecap="round" opacity="0.85"/>
<path d="M565.9 464.8 L570.0 475.0 L574.1 464.8" fill="none" stroke="#1e1e1e" stroke-width="1.9" stroke-linecap="round" stroke-linejoin="round"/>
<path d="M570.1 548.8 Q569.9 531.2 570.2 516.9 M569.8 517.2 Q410.7 517.8 254.9 516.9 M255.2 516.9 Q255.8 500.4 254.9 484.0" fill="none" stroke="#1e1e1e" stroke-width="1.9" stroke-linecap="round" opacity="0.85"/>
<path d="M259.1 495.2 L255.0 485.0 L250.9 495.2" fill="none" stroke="#1e1e1e" stroke-width="1.9" stroke-linecap="round" stroke-linejoin="round"/>
<rect x="393.5" y="505.0" width="38" height="24" rx="6" fill="#ffffff" opacity="0.95"/>
<text text-anchor="middle" dominant-baseline="central" font-family='"Segoe Print", "Bradley Hand", Chilanka, "Comic Sans MS", "Comic Neue", cursive' font-size="13" font-weight="normal" fill="#495057"><tspan x="412.5" y="517.0">Yes</tspan></text>
<path d="M570.1 548.8 Q570.4 533.4 570.4 517.5 M569.8 517.4 Q727.9 515.7 885.5 517.2 M885.4 517.5 Q883.7 500.9 885.2 485.2" fill="none" stroke="#1e1e1e" stroke-width="1.9" stroke-linecap="round" opacity="0.85"/>
<path d="M889.1 495.2 L885.0 485.0 L880.9 495.2" fill="none" stroke="#1e1e1e" stroke-width="1.9" stroke-linecap="round" stroke-linejoin="round"/>
<rect x="712.5" y="505.0" width="30" height="24" rx="6" fill="#ffffff" opacity="0.95"/>
<text text-anchor="middle" dominant-baseline="central" font-family='"Segoe Print", "Bradley Hand", Chilanka, "Comic Sans MS", "Comic Neue", cursive' font-size="13" font-weight="normal" fill="#495057"><tspan x="727.5" y="517.0">No</tspan></text>
<rect x="430.0" y="60.0" width="280.0" height="52.0" rx="10" fill="#ffec99"/>
<path d="M428.9 60.2 Q569.4 60.2 709.5 58.5 M710.2 59.1 Q707.3 86.9 710.1 111.5 M711.2 110.5 Q569.5 113.4 429.0 112.1 M428.5 111.9 Q429.1 83.5 430.8 60.1" fill="none" stroke="#f08c00" stroke-width="2" stroke-linecap="round"/>
<path d="M428.9 61.3 Q571.1 60.2 711.0 60.9 M710.4 60.6 Q712.2 88.1 708.8 112.4 M708.9 111.0 Q569.4 112.1 429.8 113.4 M431.3 113.1 Q428.9 87.2 430.6 61.1" fill="none" stroke="#f08c00" stroke-width="1.3" stroke-linecap="round" opacity="0.55"/>
<text text-anchor="middle" dominant-baseline="central" font-family='"Segoe Print", "Bradley Hand", Chilanka, "Comic Sans MS", "Comic Neue", cursive' font-size="16" font-weight="normal" fill="#1e1e1e"><tspan x="570.0" y="75.4">Initialize:</tspan><tspan x="570.0" y="96.6">dist[src] = 0, others = inf</tspan></text>
<rect x="400.0" y="140.0" width="340.0" height="58.0" rx="10" fill="#a5d8ff"/>
<path d="M400.1 139.7 Q567.4 139.8 740.8 141.1 M740.1 139.5 Q739.9 166.9 738.6 196.5 M739.9 198.5 Q568.4 196.5 398.4 197.8 M399.2 199.2 Q400.5 169.6 399.2 139.3" fill="none" stroke="#1971c2" stroke-width="2" stroke-linecap="round"/>
<path d="M401.4 139.7 Q572.3 142.0 740.1 141.2 M741.1 139.4 Q741.1 166.2 740.7 196.9 M741.3 199.2 Q571.6 195.4 401.1 198.5 M400.4 197.2 Q398.7 171.8 399.5 140.2" fill="none" stroke="#1971c2" stroke-width="1.3" stroke-linecap="round" opacity="0.55"/>
<text text-anchor="middle" dominant-baseline="central" font-family='"Segoe Print", "Bradley Hand", Chilanka, "Comic Sans MS", "Comic Neue", cursive' font-size="13" font-weight="normal" fill="#1e1e1e"><tspan x="570.0" y="160.4">Repeat V - 1 Rounds</tspan><tspan x="570.0" y="177.6">(Longest simple path has &lt;= V-1 edges)</tspan></text>
<rect x="360.0" y="225.0" width="420.0" height="60.0" rx="10" fill="#a5d8ff"/>
<path d="M359.8 224.1 Q568.5 227.1 779.1 224.9 M779.3 225.3 Q778.7 252.8 780.3 286.5 M780.2 284.0 Q571.7 286.3 359.2 285.9 M358.9 286.3 Q361.1 255.2 361.0 225.9" fill="none" stroke="#1971c2" stroke-width="2" stroke-linecap="round"/>
<path d="M360.5 225.9 Q570.7 223.5 778.6 225.5 M780.2 224.3 Q779.7 256.7 781.6 283.7 M779.4 283.9 Q567.2 283.3 359.6 284.9 M361.1 285.8 Q361.5 254.9 358.5 223.7" fill="none" stroke="#1971c2" stroke-width="1.3" stroke-linecap="round" opacity="0.55"/>
<text text-anchor="middle" dominant-baseline="central" font-family='"Segoe Print", "Bradley Hand", Chilanka, "Comic Sans MS", "Comic Neue", cursive' font-size="13" font-weight="normal" fill="#1e1e1e"><tspan x="570.0" y="246.4">For each directed edge (u, v) with weight w:</tspan><tspan x="570.0" y="263.6">Check if dist[u] + w &lt; dist[v]</tspan></text>
<rect x="410.0" y="315.0" width="320.0" height="54.0" rx="10" fill="#b2f2bb"/>
<path d="M410.9 316.0 Q568.0 317.3 730.7 313.5 M730.9 315.6 Q730.8 343.0 730.1 368.5 M730.4 370.2 Q568.1 367.2 411.2 369.4 M411.4 368.7 Q412.3 344.0 410.1 316.2" fill="none" stroke="#2f9e44" stroke-width="2" stroke-linecap="round"/>
<path d="M409.9 313.5 Q572.0 316.5 729.1 315.2 M728.7 315.8 Q727.7 339.5 729.9 368.1 M730.3 367.9 Q568.7 366.5 410.8 369.6 M409.8 367.4 Q412.1 341.2 408.9 314.6" fill="none" stroke="#2f9e44" stroke-width="1.3" stroke-linecap="round" opacity="0.55"/>
<text text-anchor="middle" dominant-baseline="central" font-family='"Segoe Print", "Bradley Hand", Chilanka, "Comic Sans MS", "Comic Neue", cursive' font-size="13" font-weight="normal" fill="#1e1e1e"><tspan x="570.0" y="333.4">Update: dist[v] = dist[u] + w</tspan><tspan x="570.0" y="350.6">parent[v] = u</tspan></text>
<rect x="390.0" y="395.0" width="360.0" height="52.0" rx="10" fill="#99e9f2"/>
<path d="M390.4 393.9 Q572.5 394.4 749.0 394.8 M751.2 396.3 Q752.0 419.9 751.1 447.6 M748.9 447.6 Q572.3 449.2 388.4 447.0 M390.5 447.9 Q390.7 419.5 388.6 395.5" fill="none" stroke="#0c8599" stroke-width="2" stroke-linecap="round"/>
<path d="M390.6 394.3 Q569.7 392.2 748.6 395.6 M749.6 396.2 Q747.7 423.4 749.6 446.2 M750.6 448.3 Q571.8 448.4 388.9 446.4 M389.7 446.2 Q392.7 418.9 388.6 395.2" fill="none" stroke="#0c8599" stroke-width="1.3" stroke-linecap="round" opacity="0.55"/>
<text text-anchor="middle" dominant-baseline="central" font-family='"Segoe Print", "Bradley Hand", Chilanka, "Comic Sans MS", "Comic Neue", cursive' font-size="13" font-weight="normal" fill="#1e1e1e"><tspan x="570.0" y="421.0">Run V-th Pass to Detect Negative Cycles</tspan></text>
<polygon points="570.0,475 680,512.0 570.0,549 460,512.0" fill="#ffec99"/>
<path d="M570.0 476.3 Q625.8 495.1 681.2 513.1 M680.2 511.3 Q624.7 532.2 571.6 547.7 M568.5 548.1 Q516.5 527.8 460.2 513.1 M458.6 510.5 Q516.5 494.6 570.3 473.9" fill="none" stroke="#f08c00" stroke-width="2" stroke-linecap="round"/>
<path d="M569.4 476.0 Q624.4 492.0 680.8 511.6 M681.4 511.7 Q627.3 531.5 568.6 547.8 M571.1 548.3 Q514.2 529.5 460.3 513.5 M460.6 513.2 Q514.5 491.4 568.8 473.6" fill="none" stroke="#f08c00" stroke-width="1.3" stroke-linecap="round" opacity="0.55"/>
<text text-anchor="middle" dominant-baseline="central" font-family='"Segoe Print", "Bradley Hand", Chilanka, "Comic Sans MS", "Comic Neue", cursive' font-size="14" font-weight="normal" fill="#1e1e1e"><tspan x="570.0" y="502.8">Does any edge still</tspan><tspan x="570.0" y="521.2">improve distance?</tspan></text>
<rect x="110.0" y="485.0" width="290.0" height="60.0" rx="10" fill="#ffc9c9"/>
<path d="M109.7 484.4 Q254.8 482.2 398.9 484.6 M400.2 486.1 Q397.6 516.5 400.8 543.5 M399.1 543.7 Q255.5 543.0 108.6 543.5 M110.6 544.3 Q109.7 512.2 108.6 485.6" fill="none" stroke="#e03131" stroke-width="2" stroke-linecap="round"/>
<path d="M109.9 484.4 Q257.0 487.0 400.3 485.1 M400.3 486.5 Q402.3 513.4 399.6 544.5 M401.4 544.9 Q252.9 542.4 110.6 546.2 M108.8 546.0 Q110.4 514.8 110.1 485.2" fill="none" stroke="#e03131" stroke-width="1.3" stroke-linecap="round" opacity="0.55"/>
<text text-anchor="middle" dominant-baseline="central" font-family='"Segoe Print", "Bradley Hand", Chilanka, "Comic Sans MS", "Comic Neue", cursive' font-size="13" font-weight="bold" fill="#1e1e1e"><tspan x="255.0" y="506.4">Negative Cycle Reachable!</tspan><tspan x="255.0" y="523.6">Report error / infinite loop</tspan></text>
<rect x="740.0" y="485.0" width="290.0" height="60.0" rx="10" fill="#b2f2bb"/>
<path d="M738.5 485.3 Q886.1 483.7 1028.9 485.8 M1030.6 484.8 Q1029.3 517.1 1028.4 543.9 M1029.2 543.7 Q886.1 547.3 741.3 544.9 M739.4 546.0 Q739.4 513.5 740.8 484.6" fill="none" stroke="#2f9e44" stroke-width="2" stroke-linecap="round"/>
<path d="M741.2 483.8 Q882.9 486.8 1028.6 484.7 M1030.2 485.2 Q1032.4 514.5 1029.9 545.7 M1028.6 545.1 Q883.9 544.9 740.0 544.2 M740.7 544.9 Q742.6 513.8 741.3 483.7" fill="none" stroke="#2f9e44" stroke-width="1.3" stroke-linecap="round" opacity="0.55"/>
<text text-anchor="middle" dominant-baseline="central" font-family='"Segoe Print", "Bradley Hand", Chilanka, "Comic Sans MS", "Comic Neue", cursive' font-size="13" font-weight="bold" fill="#1e1e1e"><tspan x="885.0" y="506.4">Shortest Distances Confirmed!</tspan><tspan x="885.0" y="523.6">No negative cycles on paths</tspan></text>
<text text-anchor="middle" dominant-baseline="central" font-family='"Segoe Print", "Bradley Hand", Chilanka, "Comic Sans MS", "Comic Neue", cursive' font-size="14" font-weight="normal" fill="#868e96"><tspan x="570.0" y="598.0">Running V-1 rounds guarantees shortest paths; an update on the V-th round proves a negative cycle exists</tspan></text>
</svg>