<svg xmlns="http://www.w3.org/2000/svg" width="1040" height="440" viewBox="0 0 1040 440" role="img" aria-label="Floyd-Warshall Detour Relaxation Principle">
<rect width="1040" height="440" fill="#ffffff" rx="10"/>
<text text-anchor="middle" dominant-baseline="central" font-family='"Segoe Print", "Bradley Hand", Chilanka, "Comic Sans MS", "Comic Neue", cursive' font-size="21" font-weight="bold" fill="#1e1e1e"><tspan x="520.0" y="34.0">Floyd-Warshall Detour Relaxation Principle</tspan></text>
<rect x="50.0" y="110.0" width="420.0" height="270.0" rx="10" fill="#f8f9fa" opacity="0.4"/>
<path d="M50.7 108.7 Q260.8 112.4 469.3 111.3 M468.8 108.6 Q470.2 245.3 468.6 379.2 M469.7 381.4 Q261.5 382.8 48.8 381.0 M51.1 380.3 Q49.9 246.4 49.6 110.0" fill="none" stroke="#adb5bd" stroke-width="1.6" stroke-dasharray="6 4" stroke-linecap="round" opacity="0.8"/>
<rect x="64.0" y="99.0" width="216" height="22" rx="4" fill="#ffffff"/>
<text text-anchor="middle" dominant-baseline="central" font-family='"Segoe Print", "Bradley Hand", Chilanka, "Comic Sans MS", "Comic Neue", cursive' font-size="13" font-weight="bold" fill="#adb5bd"><tspan x="172.0" y="110.0">Current Known Direct Path</tspan></text>
<rect x="520.0" y="110.0" width="470.0" height="270.0" rx="10" fill="#f8f9fa" opacity="0.4"/>
<path d="M521.0 110.8 Q757.0 110.5 991.6 110.9 M990.0 110.0 Q990.5 244.4 990.8 379.1 M991.0 380.1 Q753.7 380.5 520.8 379.2 M521.3 380.8 Q520.4 243.2 518.7 111.5" fill="none" stroke="#adb5bd" stroke-width="1.6" stroke-dasharray="6 4" stroke-linecap="round" opacity="0.8"/>
<rect x="534.0" y="99.0" width="280" height="22" rx="4" fill="#ffffff"/>
<text text-anchor="middle" dominant-baseline="central" font-family='"Segoe Print", "Bradley Hand", Chilanka, "Comic Sans MS", "Comic Neue", cursive' font-size="13" font-weight="bold" fill="#adb5bd"><tspan x="674.0" y="110.0">Candidate Detour through Vertex k</tspan></text>
<path d="M155.9 237.5 Q258.0 238.1 360.6 238.5" fill="none" stroke="#1e1e1e" stroke-width="1.9" stroke-linecap="round" opacity="0.85"/>
<path d="M349.8 242.1 L360.0 238.0 L349.8 233.9" fill="none" stroke="#1e1e1e" stroke-width="1.9" stroke-linecap="round" stroke-linejoin="round"/>
<rect x="207.0" y="226.0" width="102" height="24" rx="6" fill="#ffffff" opacity="0.95"/>
<text text-anchor="middle" dominant-baseline="central" font-family='"Segoe Print", "Bradley Hand", Chilanka, "Comic Sans MS", "Comic Neue", cursive' font-size="13" font-weight="normal" fill="#495057"><tspan x="258.0" y="238.0">cost D[i,j]</tspan></text>
<path d="M615.8 268.3 Q667.5 235.7 717.2 200.4" fill="none" stroke="#1e1e1e" stroke-width="1.9" stroke-linecap="round" opacity="0.85"/>
<path d="M710.2 209.2 L716.3 200.0 L705.5 202.4" fill="none" stroke="#1e1e1e" stroke-width="1.9" stroke-linecap="round" stroke-linejoin="round"/>
<rect x="635.1" y="222.4" width="62" height="24" rx="6" fill="#ffffff" opacity="0.95"/>
<text text-anchor="middle" dominant-baseline="central" font-family='"Segoe Print", "Bradley Hand", Chilanka, "Comic Sans MS", "Comic Neue", cursive' font-size="13" font-weight="normal" fill="#495057"><tspan x="666.1" y="234.4">D[i,k]</tspan></text>
<path d="M797.0 199.7 Q838.5 233.1 880.1 265.4" fill="none" stroke="#1e1e1e" stroke-width="1.9" stroke-linecap="round" opacity="0.85"/>
<path d="M869.5 262.5 L880.0 265.7 L874.6 256.1" fill="none" stroke="#1e1e1e" stroke-width="1.9" stroke-linecap="round" stroke-linejoin="round"/>
<rect x="807.8" y="220.8" width="62" height="24" rx="6" fill="#ffffff" opacity="0.95"/>
<text text-anchor="middle" dominant-baseline="central" font-family='"Segoe Print", "Bradley Hand", Chilanka, "Comic Sans MS", "Comic Neue", cursive' font-size="13" font-weight="normal" fill="#495057"><tspan x="838.8" y="232.8">D[k,j]</tspan></text>
<ellipse cx="128.0" cy="238.0" rx="28.0" ry="28.0" fill="#a5d8ff"/>
<path d="M156.0 238.0 Q153.6 248.2 147.8 257.8 M147.8 257.8 Q139.3 264.0 128.0 266.0 M128.0 266.0 Q116.5 264.9 108.2 257.8 M108.2 257.8 Q99.9 249.4 100.0 238.0 M100.0 238.0 Q101.0 228.5 108.2 218.2 M108.2 218.2 Q117.0 210.6 128.0 210.0 M128.0 210.0 Q137.8 210.1 147.8 218.2 M147.8 218.2 Q154.9 225.9 156.0 238.0" fill="none" stroke="#1971c2" stroke-width="2" stroke-linecap="round"/>
<path d="M156.0 238.0 Q153.5 248.5 147.8 257.8 M147.8 257.8 Q140.3 264.9 128.0 266.0 M128.0 266.0 Q118.0 263.9 108.2 257.8 M108.2 257.8 Q102.2 250.6 100.0 238.0 M100.0 238.0 Q101.9 225.7 108.2 218.2 M108.2 218.2 Q117.1 211.2 128.0 210.0 M128.0 210.0 Q138.5 212.3 147.8 218.2 M147.8 218.2 Q155.1 226.7 156.0 238.0" fill="none" stroke="#1971c2" stroke-width="1.3" stroke-linecap="round" opacity="0.55"/>
<text text-anchor="middle" dominant-baseline="central" font-family='"Segoe Print", "Bradley Hand", Chilanka, "Comic Sans MS", "Comic Neue", cursive' font-size="16" font-weight="bold" fill="#1e1e1e"><tspan x="128.0" y="238.0">i</tspan></text>
<ellipse cx="388.0" cy="238.0" rx="28.0" ry="28.0" fill="#a5d8ff"/>
<path d="M416.0 238.0 Q414.7 250.1 407.8 257.8 M407.8 257.8 Q398.8 265.5 388.0 266.0 M388.0 266.0 Q377.7 265.2 368.2 257.8 M368.2 257.8 Q362.5 249.2 360.0 238.0 M360.0 238.0 Q359.9 226.4 368.2 218.2 M368.2 218.2 Q376.9 211.8 388.0 210.0 M388.0 210.0 Q399.9 211.9 407.8 218.2 M407.8 218.2 Q414.7 225.8 416.0 238.0" fill="none" stroke="#1971c2" stroke-width="2" stroke-linecap="round"/>
<path d="M416.0 238.0 Q416.0 247.5 407.8 257.8 M407.8 257.8 Q398.7 263.3 388.0 266.0 M388.0 266.0 Q377.0 265.5 368.2 257.8 M368.2 257.8 Q362.6 249.0 360.0 238.0 M360.0 238.0 Q362.6 226.1 368.2 218.2 M368.2 218.2 Q378.1 210.1 388.0 210.0 M388.0 210.0 Q399.6 210.0 407.8 218.2 M407.8 218.2 Q415.8 225.4 416.0 238.0" fill="none" stroke="#1971c2" stroke-width="1.3" stroke-linecap="round" opacity="0.55"/>
<text text-anchor="middle" dominant-baseline="central" font-family='"Segoe Print", "Bradley Hand", Chilanka, "Comic Sans MS", "Comic Neue", cursive' font-size="16" font-weight="bold" fill="#1e1e1e"><tspan x="388.0" y="238.0">j</tspan></text>
<rect x="175.0" y="280.0" width="180.0" height="54.0" rx="10" fill="#a5d8ff"/>
<path d="M174.8 279.1 Q263.5 282.1 354.1 279.9 M354.3 280.3 Q353.7 304.8 355.3 335.5 M355.2 333.0 Q266.7 335.3 174.2 334.9 M173.9 335.3 Q176.1 307.2 176.0 280.9" fill="none" stroke="#1971c2" stroke-width="2" stroke-linecap="round"/>
<path d="M175.5 280.9 Q265.7 278.5 353.6 280.5 M355.2 279.3 Q354.7 308.7 356.6 332.7 M354.4 332.9 Q262.2 332.3 174.6 333.9 M176.1 334.8 Q176.5 306.9 173.5 278.7" fill="none" stroke="#1971c2" stroke-width="1.3" stroke-linecap="round" opacity="0.55"/>
<text text-anchor="middle" dominant-baseline="central" font-family='"Segoe Print", "Bradley Hand", Chilanka, "Comic Sans MS", "Comic Neue", cursive' font-size="13" font-weight="normal" fill="#1e1e1e"><tspan x="265.0" y="298.4">Direct distance:</tspan><tspan x="265.0" y="315.6">D[i, j]^(k-1)</tspan></text>
<ellipse cx="588.0" cy="288.0" rx="28.0" ry="28.0" fill="#b2f2bb"/>
<path d="M616.0 288.0 Q615.6 297.6 607.8 307.8 M607.8 307.8 Q600.0 315.2 588.0 316.0 M588.0 316.0 Q577.7 315.0 568.2 307.8 M568.2 307.8 Q559.9 298.2 560.0 288.0 M560.0 288.0 Q560.2 276.5 568.2 268.2 M568.2 268.2 Q578.2 261.6 588.0 260.0 M588.0 260.0 Q600.1 260.6 607.8 268.2 M607.8 268.2 Q615.5 278.5 616.0 288.0" fill="none" stroke="#2f9e44" stroke-width="2" stroke-linecap="round"/>
<path d="M616.0 288.0 Q614.5 297.6 607.8 307.8 M607.8 307.8 Q597.5 314.8 588.0 316.0 M588.0 316.0 Q576.0 316.1 568.2 307.8 M568.2 307.8 Q561.5 297.8 560.0 288.0 M560.0 288.0 Q562.5 276.9 568.2 268.2 M568.2 268.2 Q577.8 262.8 588.0 260.0 M588.0 260.0 Q597.5 261.1 607.8 268.2 M607.8 268.2 Q613.3 275.6 616.0 288.0" fill="none" stroke="#2f9e44" stroke-width="1.3" stroke-linecap="round" opacity="0.55"/>
<text text-anchor="middle" dominant-baseline="central" font-family='"Segoe Print", "Bradley Hand", Chilanka, "Comic Sans MS", "Comic Neue", cursive' font-size="16" font-weight="bold" fill="#1e1e1e"><tspan x="588.0" y="288.0">i</tspan></text>
<rect x="710.0" y="140.0" width="100.0" height="60.0" rx="10" fill="#ffec99"/>
<path d="M710.4 138.9 Q762.5 139.4 809.0 139.8 M811.2 141.3 Q812.0 168.9 811.1 200.6 M808.9 200.6 Q762.3 202.2 708.4 200.0 M710.5 200.9 Q710.7 168.5 708.6 140.5" fill="none" stroke="#f08c00" stroke-width="2" stroke-linecap="round"/>
<path d="M710.6 139.3 Q759.7 137.2 808.6 140.6 M809.6 141.2 Q807.7 172.4 809.6 199.2 M810.6 201.3 Q761.8 201.4 708.9 199.4 M709.7 199.2 Q712.7 167.9 708.6 140.2" fill="none" stroke="#f08c00" stroke-width="1.3" stroke-linecap="round" opacity="0.55"/>
<text text-anchor="middle" dominant-baseline="central" font-family='"Segoe Print", "Bradley Hand", Chilanka, "Comic Sans MS", "Comic Neue", cursive' font-size="13" font-weight="bold" fill="#1e1e1e"><tspan x="760.0" y="170.0">k (Pivot)</tspan></text>
<ellipse cx="908.0" cy="288.0" rx="28.0" ry="28.0" fill="#b2f2bb"/>
<path d="M936.0 288.0 Q934.7 297.7 927.8 307.8 M927.8 307.8 Q920.3 315.3 908.0 316.0 M908.0 316.0 Q898.2 314.5 888.2 307.8 M888.2 307.8 Q882.4 297.5 880.0 288.0 M880.0 288.0 Q881.8 275.8 888.2 268.2 M888.2 268.2 Q897.8 261.0 908.0 260.0 M908.0 260.0 Q917.6 262.5 927.8 268.2 M927.8 268.2 Q935.2 276.5 936.0 288.0" fill="none" stroke="#2f9e44" stroke-width="2" stroke-linecap="round"/>
<path d="M936.0 288.0 Q934.0 299.1 927.8 307.8 M927.8 307.8 Q920.0 314.9 908.0 316.0 M908.0 316.0 Q897.7 314.9 888.2 307.8 M888.2 307.8 Q880.9 298.9 880.0 288.0 M880.0 288.0 Q881.0 277.7 888.2 268.2 M888.2 268.2 Q896.1 262.7 908.0 260.0 M908.0 260.0 Q917.6 261.1 927.8 268.2 M927.8 268.2 Q934.8 275.4 936.0 288.0" fill="none" stroke="#2f9e44" stroke-width="1.3" stroke-linecap="round" opacity="0.55"/>
<text text-anchor="middle" dominant-baseline="central" font-family='"Segoe Print", "Bradley Hand", Chilanka, "Comic Sans MS", "Comic Neue", cursive' font-size="16" font-weight="bold" fill="#1e1e1e"><tspan x="908.0" y="288.0">j</tspan></text>
<rect x="140.0" y="60.0" width="760.0" height="40.0" rx="10" fill="#99e9f2"/>
<path d="M139.7 59.4 Q519.8 57.2 898.9 59.6 M900.2 61.1 Q897.6 81.5 900.8 98.5 M899.1 98.7 Q520.5 98.0 138.6 98.5 M140.6 99.3 Q139.7 77.2 138.6 60.6" fill="none" stroke="#0c8599" stroke-width="2" stroke-linecap="round"/>
<path d="M139.9 59.4 Q522.0 62.0 900.3 60.1 M900.3 61.5 Q902.3 78.4 899.6 99.5 M901.4 99.9 Q517.9 97.4 140.6 101.2 M138.8 101.0 Q140.4 79.8 140.1 60.2" fill="none" stroke="#0c8599" stroke-width="1.3" stroke-linecap="round" opacity="0.55"/>
<text text-anchor="middle" dominant-baseline="central" font-family='"Segoe Print", "Bradley Hand", Chilanka, "Comic Sans MS", "Comic Neue", cursive' font-size="13" font-weight="bold" fill="#1e1e1e"><tspan x="520.0" y="80.0">Recurrence: D[i, j]^(k) = min( D[i, j]^(k-1),  D[i, k]^(k-1) + D[k, j]^(k-1) )</tspan></text>
<text text-anchor="middle" dominant-baseline="central" font-family='"Segoe Print", "Bradley Hand", Chilanka, "Comic Sans MS", "Comic Neue", cursive' font-size="14" font-weight="normal" fill="#868e96"><tspan x="520.0" y="418.0">Dynamic programming over intermediate vertices k from 1 to V computes all-pairs distances in O(V^3)</tspan></text>
</svg>